<svg width="28" height="19" viewBox="0 0 28 19" fill="none" xmlns="http://www.w3.org/2000/svg">
<path d="M1.64404 18.5H25.644C26.469 18.5 27.144 17.825 27.144 17C27.144 16.175 26.469 15.5 25.644 15.5H1.64404C0.819043 15.5 0.144043 16.175 0.144043 17C0.144043 17.825 0.819043 18.5 1.64404 18.5ZM1.64404 11H25.644C26.469 11 27.144 10.325 27.144 9.5C27.144 8.675 26.469 8 25.644 8H1.64404C0.819043 8 0.144043 8.675 0.144043 9.5C0.144043 10.325 0.819043 11 1.64404 11ZM0.144043 2C0.144043 2.825 0.819043 3.5 1.64404 3.5H25.644C26.469 3.5 27.144 2.825 27.144 2C27.144 1.175 26.469 0.5 25.644 0.5H1.64404C0.819043 0.5 0.144043 1.175 0.144043 2Z" fill="#F2F2F2"/>
</svg>
